{
  "asset": {
    "generator": "Khronos glTF Blender I/O v3.4.50",
    "version": "2.0"
  },
  "extensionsUsed": ["KHR_materials_specular", "KHR_materials_ior"],
  "scene": 0,
  "scenes": [
    {
      "name": "Scene",
      "nodes": [8, 9, 10]
    }
  ],
  "nodes": [
    {
      "mesh": 0,
      "name": "nimbus.001_0",
      "scale": [0.4891435205936432, 0.4891432821750641, 1.0047646760940552]
    },
    {
      "children": [0],
      "name": "Halo_1"
    },
    {
      "mesh": 1,
      "name": "nimbus.002_0",
      "scale": [0.4891435205936432, 0.4891432821750641, 1.0047646760940552]
    },
    {
      "children": [2],
      "name": "Halo_2"
    },
    {
      "mesh": 2,
      "name": "nimbus.003_0",
      "scale": [0.4891435205936432, 0.48914337158203125, 0.836227297782898]
    },
    {
      "children": [4],
      "name": "Halo_3"
    },
    {
      "children": [1, 3, 5],
      "name": "Empty",
      "rotation": [
        -0.05197935178875923, 0.04926064610481262, -0.001640241825953126,
        0.9974311590194702
      ],
      "scale": [0.8924055099487305, 0.8924071788787842, 0.8924036026000977],
      "translation": [
        0.160630002617836, -0.17024998366832733, 4.807849884033203
      ]
    },
    {
      "children": [6],
      "name": "Crown_Division"
    },
    {
      "children": [7],
      "name": "Crown",
      "rotation": [-0.70710688829422, 0, 0, 0.7071066498756409],
      "translation": [-0.15000000596046448, 0, -0.17000000178813934]
    },
    {
      "mesh": 3,
      "name": "Avatar_Joints",
      "rotation": [0.70710688829422, 0, 0, 0.7071066498756409],
      "scale": [0.02797374688088894, 0.027973754331469536, 0.027973754331469536]
    },
    {
      "mesh": 4,
      "name": "Avatar_Surface",
      "rotation": [0.70710688829422, 0, 0, 0.7071066498756409],
      "scale": [0.02797374688088894, 0.027973754331469536, 0.027973754331469536]
    }
  ],
  "animations": [
    {
      "channels": [
        {
          "sampler": 0,
          "target": {
            "node": 1,
            "path": "rotation"
          }
        },
        {
          "sampler": 1,
          "target": {
            "node": 3,
            "path": "rotation"
          }
        }
      ],
      "name": "crown",
      "samplers": [
        {
          "input": 20,
          "interpolation": "LINEAR",
          "output": 21
        },
        {
          "input": 20,
          "interpolation": "LINEAR",
          "output": 22
        }
      ]
    }
  ],
  "materials": [
    {
      "alphaMode": "BLEND",
      "doubleSided": true,
      "emissiveFactor": [0, 0.26225051283836365, 0.2622506618499756],
      "name": "Crown",
      "pbrMetallicRoughness": {
        "baseColorFactor": [0, 0.26225051283836365, 0.2622506618499756, 1],
        "baseColorTexture": {
          "index": 0
        },
        "metallicFactor": 0,
        "roughnessFactor": 0.5
      }
    },
    {
      "doubleSided": true,
      "name": "Alpha_Joints_MAT",
      "pbrMetallicRoughness": {
        "baseColorFactor": [
          0.0185001902282238, 0.024157606065273285, 0.027320880442857742, 1
        ],
        "metallicFactor": 0,
        "roughnessFactor": 0.5
      }
    },
    {
      "doubleSided": true,
      "extensions": {
        "KHR_materials_specular": {
          "specularColorFactor": [
            2.371357614441398, 2.371357614441398, 2.371357614441398
          ]
        },
        "KHR_materials_ior": {
          "ior": 1.4500000476837158
        }
      },
      "name": "Alpha_Body_MAT",
      "pbrMetallicRoughness": {
        "baseColorFactor": [
          0.8069514632225037, 0.806951642036438, 0.8069523572921753, 1
        ],
        "roughnessFactor": 0.20000000298023224
      }
    }
  ],
  "meshes": [
    {
      "name": "nimbus.001_0",
      "primitives": [
        {
          "attributes": {
            "POSITION": 0,
            "TEXCOORD_0": 1,
            "NORMAL": 2
          },
          "indices": 3,
          "material": 0
        }
      ]
    },
    {
      "name": "nimbus.002_0",
      "primitives": [
        {
          "attributes": {
            "POSITION": 4,
            "TEXCOORD_0": 5,
            "NORMAL": 6
          },
          "indices": 7,
          "material": 0
        }
      ]
    },
    {
      "name": "nimbus.003_0",
      "primitives": [
        {
          "attributes": {
            "POSITION": 8,
            "TEXCOORD_0": 9,
            "NORMAL": 10
          },
          "indices": 11,
          "material": 0
        }
      ]
    },
    {
      "name": "Alpha_Joints",
      "primitives": [
        {
          "attributes": {
            "POSITION": 12,
            "TEXCOORD_0": 13,
            "NORMAL": 14
          },
          "indices": 15,
          "material": 1
        }
      ]
    },
    {
      "name": "Alpha_Surface",
      "primitives": [
        {
          "attributes": {
            "POSITION": 16,
            "TEXCOORD_0": 17,
            "NORMAL": 18
          },
          "indices": 19,
          "material": 2
        }
      ]
    }
  ],
  "textures": [
    {
      "sampler": 0,
      "source": 0
    }
  ],
  "images": [
    {
      "bufferView": 4,
      "mimeType": "image/png",
      "name": "Crown_baseColor"
    }
  ],
  "accessors": [
    {
      "bufferView": 0,
      "componentType": 5126,
      "count": 714,
      "max": [1.0479999780654907, 1.0479999780654907, 0.02621999941766262],
      "min": [-1.0479999780654907, -1.0479999780654907, -0.021530000492930412],
      "type": "VEC3"
    },
    {
      "bufferView": 1,
      "componentType": 5126,
      "count": 714,
      "type": "VEC2"
    },
    {
      "bufferView": 2,
      "componentType": 5126,
      "count": 714,
      "type": "VEC3"
    },
    {
      "bufferView": 3,
      "componentType": 5123,
      "count": 786,
      "type": "SCALAR"
    },
    {
      "bufferView": 5,
      "componentType": 5126,
      "count": 594,
      "max": [1.0479999780654907, 1.0479700565338135, 0.09032999724149704],
      "min": [-1.0429600477218628, -1.0427600145339966, -0.08946000039577484],
      "type": "VEC3"
    },
    {
      "bufferView": 6,
      "componentType": 5126,
      "count": 594,
      "type": "VEC2"
    },
    {
      "bufferView": 7,
      "componentType": 5126,
      "count": 594,
      "type": "VEC3"
    },
    {
      "bufferView": 8,
      "componentType": 5123,
      "count": 618,
      "type": "SCALAR"
    },
    {
      "bufferView": 9,
      "componentType": 5126,
      "count": 50,
      "max": [0.9368500113487244, 1.0062299966812134, 0.15488000214099884],
      "min": [-1.0478700399398804, -0.8392500281333923, -0.16102999448776245],
      "type": "VEC3"
    },
    {
      "bufferView": 10,
      "componentType": 5126,
      "count": 50,
      "type": "VEC2"
    },
    {
      "bufferView": 11,
      "componentType": 5126,
      "count": 50,
      "type": "VEC3"
    },
    {
      "bufferView": 12,
      "componentType": 5123,
      "count": 54,
      "type": "SCALAR"
    },
    {
      "bufferView": 13,
      "componentType": 5126,
      "count": 12473,
      "max": [37.17966842651367, 32.0225830078125, -0.7688515186309814],
      "min": [-36.635738372802734, -13.592480659484863, -159.83908081054688],
      "type": "VEC3"
    },
    {
      "bufferView": 14,
      "componentType": 5126,
      "count": 12473,
      "type": "VEC2"
    },
    {
      "bufferView": 15,
      "componentType": 5126,
      "count": 12473,
      "type": "VEC3"
    },
    {
      "bufferView": 16,
      "componentType": 5123,
      "count": 62520,
      "type": "SCALAR"
    },
    {
      "bufferView": 17,
      "componentType": 5126,
      "count": 22978,
      "max": [37.46586990356445, 32.99934387207031, 0.010267253033816814],
      "min": [-36.22511672973633, -16.051090240478516, -180.55059814453125],
      "type": "VEC3"
    },
    {
      "bufferView": 18,
      "componentType": 5126,
      "count": 22978,
      "type": "VEC2"
    },
    {
      "bufferView": 19,
      "componentType": 5126,
      "count": 22978,
      "type": "VEC3"
    },
    {
      "bufferView": 20,
      "componentType": 5123,
      "count": 103440,
      "type": "SCALAR"
    },
    {
      "bufferView": 21,
      "componentType": 5126,
      "count": 2999,
      "max": [124.95833666622639],
      "min": [0.04166999955972036],
      "type": "SCALAR"
    },
    {
      "bufferView": 22,
      "componentType": 5126,
      "count": 2999,
      "type": "VEC4"
    },
    {
      "bufferView": 23,
      "componentType": 5126,
      "count": 2999,
      "type": "VEC4"
    }
  ],
  "bufferViews": [
    {
      "buffer": 0,
      "byteLength": 8568,
      "byteOffset": 0,
      "target": 34962
    },
    {
      "buffer": 0,
      "byteLength": 5712,
      "byteOffset": 8568,
      "target": 34962
    },
    {
      "buffer": 0,
      "byteLength": 8568,
      "byteOffset": 14280,
      "target": 34962
    },
    {
      "buffer": 0,
      "byteLength": 1572,
      "byteOffset": 22848,
      "target": 34963
    },
    {
      "buffer": 0,
      "byteLength": 1408,
      "byteOffset": 24420
    },
    {
      "buffer": 0,
      "byteLength": 7128,
      "byteOffset": 25828,
      "target": 34962
    },
    {
      "buffer": 0,
      "byteLength": 4752,
      "byteOffset": 32956,
      "target": 34962
    },
    {
      "buffer": 0,
      "byteLength": 7128,
      "byteOffset": 37708,
      "target": 34962
    },
    {
      "buffer": 0,
      "byteLength": 1236,
      "byteOffset": 44836,
      "target": 34963
    },
    {
      "buffer": 0,
      "byteLength": 600,
      "byteOffset": 46072,
      "target": 34962
    },
    {
      "buffer": 0,
      "byteLength": 400,
      "byteOffset": 46672,
      "target": 34962
    },
    {
      "buffer": 0,
      "byteLength": 600,
      "byteOffset": 47072,
      "target": 34962
    },
    {
      "buffer": 0,
      "byteLength": 108,
      "byteOffset": 47672,
      "target": 34963
    },
    {
      "buffer": 0,
      "byteLength": 149676,
      "byteOffset": 47780,
      "target": 34962
    },
    {
      "buffer": 0,
      "byteLength": 99784,
      "byteOffset": 197456,
      "target": 34962
    },
    {
      "buffer": 0,
      "byteLength": 149676,
      "byteOffset": 297240,
      "target": 34962
    },
    {
      "buffer": 0,
      "byteLength": 125040,
      "byteOffset": 446916,
      "target": 34963
    },
    {
      "buffer": 0,
      "byteLength": 275736,
      "byteOffset": 571956,
      "target": 34962
    },
    {
      "buffer": 0,
      "byteLength": 183824,
      "byteOffset": 847692,
      "target": 34962
    },
    {
      "buffer": 0,
      "byteLength": 275736,
      "byteOffset": 1031516,
      "target": 34962
    },
    {
      "buffer": 0,
      "byteLength": 206880,
      "byteOffset": 1307252,
      "target": 34963
    },
    {
      "buffer": 0,
      "byteLength": 11996,
      "byteOffset": 1514132
    },
    {
      "buffer": 0,
      "byteLength": 47984,
      "byteOffset": 1526128
    },
    {
      "buffer": 0,
      "byteLength": 47984,
      "byteOffset": 1574112
    }
  ],
  "samplers": [
    {
      "magFilter": 9728,
      "minFilter": 9984
    }
  ],
  "buffers": [
    {
      "byteLength": 1622096,
      "uri": "data:application/octet-stream;base64,"
    }
  ]
}
