{
  "asset": {
    "generator": "Khronos glTF Blender I/O v3.4.50",
    "version": "2.0"
  },
  "scene": 0,
  "scenes": [
    {
      "name": "Scene",
      "nodes": [0]
    },
    {
      "name": "Scene.001"
    }
  ],
  "nodes": [
    {
      "mesh": 0,
      "name": "Mail"
    }
  ],
  "materials": [
    {
      "doubleSided": true,
      "name": "Color - Red",
      "pbrMetallicRoughness": {
        "baseColorFactor": [0, 0.26225051283836365, 0.2622506618499756, 1],
        "metallicFactor": 0,
        "roughnessFactor": 0.5
      }
    }
  ],
  "meshes": [
    {
      "name": "Plane.020",
      "primitives": [
        {
          "attributes": {
            "POSITION": 0,
            "TEXCOORD_0": 1,
            "NORMAL": 2
          },
          "indices": 3,
          "material": 0
        }
      ]
    }
  ],
  "accessors": [
    {
      "bufferView": 0,
      "componentType": 5126,
      "count": 30040,
      "max": [0.9794013500213623, 0.6222067475318909, 0.40291276574134827],
      "min": [-0.9794013500213623, -0.7621265649795532, -0.13532711565494537],
      "type": "VEC3"
    },
    {
      "bufferView": 1,
      "componentType": 5126,
      "count": 30040,
      "type": "VEC2"
    },
    {
      "bufferView": 2,
      "componentType": 5126,
      "count": 30040,
      "type": "VEC3"
    },
    {
      "bufferView": 3,
      "componentType": 5123,
      "count": 172800,
      "type": "SCALAR"
    }
  ],
  "bufferViews": [
    {
      "buffer": 0,
      "byteLength": 360480,
      "byteOffset": 0,
      "target": 34962
    },
    {
      "buffer": 0,
      "byteLength": 240320,
      "byteOffset": 360480,
      "target": 34962
    },
    {
      "buffer": 0,
      "byteLength": 360480,
      "byteOffset": 600800,
      "target": 34962
    },
    {
      "buffer": 0,
      "byteLength": 345600,
      "byteOffset": 961280,
      "target": 34963
    }
  ],
  "buffers": [
    {
      "byteLength": 1306880,
      "uri": "data:application/octet-stream;base64,"
    }
  ]
}
