<svg xmlns="http://www.w3.org/2000/svg" fill="none" viewBox="0 0 839 829">
    <path fill="#252b2e" d="m208.657 498.548 16.856.484 4.655 15.094-16.638.228-4.873-15.806Zm26.42-.287 16.835.489 4.645 15.088-16.628.237-4.852-15.814Z"/>
    <path fill="#e8e8e8" d="m307.426 397.259 114.429 1.253 4.644 15.103-114.216-.55-4.857-15.806Z"/>
    <path fill="#008c8c" d="m236.524 464.625 114.435 1.251 4.654 15.1-114.231-.545-4.858-15.806ZM164.68 329.319l215.232 2.216 4.647 15.106-215.022-1.519-4.857-15.803Zm150.744 32.259 215.208 2.222 4.655 15.098-215.023-1.517-4.84-15.803Z"/>
    <path fill="#252b2e" d="m272.653 396.776 16.845.48 4.644 15.095-16.62.228-4.869-15.803Z"/>
    <path fill="#008c8c" d="m150.644 396.443 114.453 1.251 4.643 15.093-114.222-.535-4.874-15.809Z"/>
    <path fill="#252b2e" d="m371.415 464.065 161.022.482 4.655 15.096-160.808.223-4.869-15.801Z"/>
    <path fill="#e8e8e8" d="m512.791 498.473 312.154-.424 4.642 15.104-311.926 1.119-4.87-15.799Zm-127.169-69.26 229.343-1.283 4.653 15.098-229.135 1.997-4.861-15.812Zm-140.276-65.999 48.792.188 4.645 15.097-48.566.525-4.871-15.81Z"/>
    <path fill="#008c8c" d="m116.528 296.579 145.052-.914 4.646 15.089-144.832 1.617-4.866-15.792Zm244.187-.727 347.377-3.489 4.65 15.097-347.164 4.196-4.863-15.804Z"/>
    <path fill="#252b2e" d="m278.465 295.126 67.089.375 4.64 15.095-66.863.347-4.866-15.817Z"/>
    <path fill="#008c8c" d="m39.69 296.672 67.099.348 4.652 15.097-66.877.343-4.875-15.788Z"/>
    <path fill="#e8e8e8" d="m89.264 330.329 67.083.367 4.647 15.104-66.87.341-4.86-15.812Zm74.782 134.086 67.087.368 4.652 15.099-66.887.345-4.852-15.812Z"/>
    <path fill="#252b2e" d="m94.004 364.215 140.343.442L239 379.77l-140.13.244-4.867-15.799Z"/>
    <path fill="#008c8c" d="m70.713 397.331 67.096.364 4.65 15.104-66.88.341-4.865-15.809Zm71.045 33.591 221.375-1.683 4.643 15.103-221.154 2.391-4.864-15.811Zm121.999 68.004 221.387-1.695 4.655 15.099-221.179 2.389-4.863-15.793Z"/>
    <path fill="#252b2e" d="m91.39 464.47 67.092.358 4.646 15.103-66.878.342-4.86-15.803Z"/>
    <path fill="#008c8c" d="m135.153 497.873 65.317.869 4.644 15.101-65.088-.172-4.873-15.798Z"/>
</svg>